<?xml version="1.0" standalone="no"?>
<!DOCTYPE svg PUBLIC "-//W3C//DTD SVG 20010904//EN"
 "http://www.w3.org/TR/2001/REC-SVG-20010904/DTD/svg10.dtd">
<svg version="1.0" xmlns="http://www.w3.org/2000/svg"
 width="1280.000000pt" height="1280.000000pt" viewBox="0 0 1280.000000 1280.000000"
 preserveAspectRatio="xMidYMid meet">

<g transform="translate(0.000000,1280.000000) scale(0.100000,-0.100000)"
fill="#000000" stroke="none">
<path d="M7517 11908 c-107 -8 -234 -33 -296 -58 -96 -38 -219 -93 -296 -131
-109 -55 -643 -414 -995 -669 -96 -70 -204 -144 -240 -165 -115 -68 -214 -141
-272 -203 -78 -82 -79 -136 -2 -77 18 14 36 25 39 25 4 0 40 21 82 46 42 25
137 78 212 118 75 40 182 100 238 134 56 34 107 62 113 62 16 0 184 94 298
167 53 35 131 82 172 106 41 24 104 63 140 86 36 22 75 46 88 51 13 5 69 32
126 59 173 82 331 118 533 121 123 1 204 -10 300 -41 65 -21 246 -125 358
-204 85 -61 233 -228 307 -348 32 -51 68 -108 80 -127 22 -33 233 -315 293
-392 36 -46 132 -121 197 -154 57 -29 175 -74 194 -74 25 0 14 24 -25 55 -21
17 -49 46 -63 65 -38 52 -198 364 -198 385 0 16 7 17 78 12 102 -8 180 -30
272 -75 109 -53 261 -205 318 -319 55 -108 68 -202 46 -333 -18 -112 -40 -163
-110 -257 -95 -127 -194 -189 -356 -223 -50 -11 -100 -20 -110 -20 -25 0 -23
22 6 53 78 84 110 158 99 232 -7 51 -32 62 -50 22 -6 -13 -25 -35 -43 -48 -17
-13 -50 -40 -73 -59 -117 -98 -222 -140 -367 -147 -88 -5 -100 -3 -170 25 -79
32 -214 67 -227 59 -5 -3 -44 3 -88 13 -170 38 -269 45 -635 43 l-355 -2 -130
-35 c-133 -35 -166 -46 -315 -98 -82 -29 -190 -77 -200 -89 -3 -3 -50 -25
-105 -48 -119 -51 -145 -66 -145 -87 0 -21 59 -16 224 20 66 14 147 28 180 32
34 3 88 12 121 19 33 8 128 16 210 19 83 3 238 10 345 17 237 14 318 7 557
-46 201 -45 442 -130 553 -195 38 -22 73 -40 78 -40 4 0 19 -11 31 -24 35 -37
19 -75 -38 -92 -54 -16 -88 -47 -95 -87 -3 -18 -6 -124 -7 -237 0 -113 -3
-224 -6 -248 -5 -42 -6 -43 -35 -37 -18 4 -35 2 -45 -7 -32 -26 -324 -7 -508
32 -166 36 -252 50 -312 50 -28 0 -55 5 -58 10 -4 7 73 10 222 11 151 1 209 4
173 9 -83 12 -571 12 -680 0 -277 -29 -400 -48 -490 -74 -30 -8 -66 -18 -80
-22 -26 -6 -63 -20 -92 -35 -10 -5 -27 -9 -37 -9 -11 0 -22 -4 -26 -9 -3 -5
-20 -13 -37 -17 -18 -3 -39 -10 -48 -14 -8 -4 -26 -12 -40 -18 -169 -68 -225
-101 -345 -204 -79 -66 -127 -118 -175 -188 -13 -19 -27 -37 -30 -40 -30 -28
-90 -176 -90 -224 0 -28 -36 -76 -57 -76 -24 0 -275 -118 -281 -132 -2 -5 -8
-8 -13 -8 -5 0 -39 -21 -75 -47 -49 -36 -83 -72 -130 -139 -68 -99 -114 -179
-114 -200 0 -8 -4 -14 -10 -14 -5 0 -10 -7 -10 -15 0 -8 -4 -23 -9 -33 -10
-17 -29 -84 -50 -175 -16 -68 -14 -285 3 -349 25 -94 59 -188 67 -188 5 0 9
-5 9 -10 0 -20 68 -118 117 -166 61 -62 143 -123 208 -155 28 -13 52 -26 55
-29 10 -10 193 -100 197 -97 2 2 -33 75 -77 163 -59 117 -83 176 -91 224 -12
71 -6 154 12 176 17 21 84 17 137 -8 44 -20 95 -32 187 -44 48 -6 103 -32 127
-59 10 -11 36 -56 58 -100 70 -139 90 -165 195 -253 146 -122 225 -211 225
-255 0 -23 17 -45 80 -108 56 -56 80 -87 80 -104 0 -13 5 -27 10 -30 14 -9 13
-469 -1 -537 -13 -61 -61 -169 -84 -188 -8 -7 -15 -18 -15 -24 0 -33 -183
-183 -272 -224 -16 -6 -38 -17 -50 -22 -13 -6 -42 -14 -66 -18 -58 -10 -57
-25 3 -36 28 -6 52 -13 55 -16 14 -19 199 -29 280 -16 47 8 123 31 152 47 10
5 25 9 33 9 8 0 15 4 15 8 0 12 78 54 88 48 5 -3 12 -46 15 -95 3 -49 10 -99
16 -110 13 -24 15 -158 2 -165 -5 -4 -12 -24 -16 -46 -4 -22 -11 -42 -16 -46
-5 -3 -9 -14 -9 -25 0 -10 -4 -19 -8 -19 -5 0 -15 -12 -23 -27 -20 -41 -104
-147 -144 -182 -50 -43 -135 -96 -175 -109 -86 -26 -455 -21 -483 7 -6 6 -21
11 -33 11 -13 0 -26 4 -29 10 -3 5 -19 10 -36 10 -16 0 -29 5 -29 10 0 6 -7
10 -16 10 -15 0 -66 20 -106 41 -10 5 -25 9 -33 9 -8 0 -15 5 -15 10 0 6 -6
10 -13 10 -8 0 -47 17 -88 39 -287 149 -516 325 -723 557 -82 92 -133 153
-151 185 -5 9 -31 45 -56 80 -64 88 -169 281 -207 380 -8 19 -22 52 -32 74
-10 22 -26 65 -35 95 -9 30 -20 64 -25 75 -7 18 -17 53 -37 130 -7 29 -7 29
-11 -12 -2 -23 2 -51 7 -62 6 -11 11 -30 11 -42 0 -31 41 -203 60 -254 4 -11
15 -47 24 -80 10 -33 21 -69 26 -80 4 -11 14 -36 20 -55 18 -49 95 -212 175
-371 5 -10 13 -19 17 -19 5 0 8 -4 8 -10 0 -10 68 -121 80 -130 3 -3 16 -21
28 -40 11 -20 29 -45 39 -57 10 -12 27 -34 38 -49 28 -40 79 -98 88 -102 4 -2
7 -8 7 -13 0 -11 244 -259 255 -259 4 0 26 -17 49 -38 79 -71 276 -212 297
-212 5 0 9 -4 9 -10 0 -5 5 -10 10 -10 6 0 29 -12 53 -27 23 -15 69 -41 102
-58 33 -17 70 -36 83 -43 45 -24 58 -30 90 -36 17 -4 34 -12 37 -17 4 -5 17
-9 30 -9 13 0 27 -4 30 -10 3 -5 15 -10 26 -10 10 0 27 -4 37 -9 9 -6 46 -15
82 -21 36 -7 85 -16 110 -22 73 -16 288 -21 365 -8 129 21 247 55 317 91 10 5
23 9 29 9 6 0 47 18 91 40 45 22 83 40 85 40 1 0 3 -8 3 -18 0 -23 -120 -139
-193 -186 -32 -21 -81 -46 -108 -55 -27 -10 -52 -21 -56 -24 -3 -4 -17 -7 -30
-7 -14 0 -33 -4 -43 -10 -10 -5 -56 -13 -102 -17 -193 -18 -27 -47 221 -40 90
3 158 10 164 16 6 6 23 11 38 11 15 0 31 5 34 10 3 6 15 10 26 10 28 0 177 49
184 61 4 5 14 9 24 9 9 0 30 6 45 13 67 29 361 179 366 186 3 5 46 37 95 71
50 35 121 89 158 119 38 31 83 67 100 81 63 49 384 373 467 470 47 55 88 100
92 100 5 0 8 5 8 10 0 6 22 39 48 73 27 34 61 82 77 107 15 25 32 47 36 50 5
3 19 26 32 50 14 25 35 64 48 88 12 23 27 42 32 42 12 0 1 -90 -13 -104 -6 -6
-10 -22 -10 -37 0 -15 -4 -30 -9 -33 -5 -3 -12 -30 -16 -61 -3 -30 -11 -57
-16 -60 -5 -4 -9 -21 -9 -40 0 -19 -4 -37 -10 -40 -5 -3 -10 -24 -10 -45 0
-21 -4 -42 -10 -45 -5 -3 -10 -18 -10 -33 -1 -31 -33 -158 -43 -168 -4 -4 -7
-18 -7 -30 0 -13 -4 -26 -10 -29 -5 -3 -10 -15 -10 -27 0 -18 -18 -67 -41
-110 -5 -10 -9 -24 -9 -32 0 -8 -3 -16 -7 -18 -5 -1 -21 -30 -37 -63 -28 -56
-85 -143 -113 -173 -7 -7 -13 -16 -13 -20 0 -4 -15 -23 -33 -43 -17 -20 -52
-60 -77 -89 -104 -121 -357 -360 -419 -394 -9 -5 -30 -21 -47 -35 -55 -46 -71
-58 -80 -62 -5 -2 -47 -29 -94 -60 -101 -67 -165 -104 -245 -140 -16 -8 -32
-16 -35 -19 -11 -12 -113 -60 -126 -60 -8 0 -14 -4 -14 -8 0 -4 -24 -16 -52
-26 -57 -19 -93 -33 -120 -47 -10 -5 -24 -9 -32 -9 -7 0 -27 -7 -42 -15 -16
-8 -39 -15 -51 -15 -12 0 -25 -5 -28 -10 -3 -6 -19 -10 -35 -10 -16 0 -32 -4
-35 -10 -3 -5 -19 -10 -35 -10 -16 0 -31 -4 -35 -9 -3 -5 -34 -13 -70 -16 -36
-4 -68 -11 -71 -16 -3 -5 -27 -9 -53 -9 -26 0 -51 -4 -56 -9 -11 -10 -38 -13
-292 -30 -166 -11 -398 -3 -543 20 -36 5 -87 12 -115 15 -27 4 -54 10 -60 14
-5 4 -38 11 -73 15 -34 4 -65 11 -68 16 -3 5 -21 9 -40 9 -19 0 -34 5 -34 10
0 6 -10 10 -22 10 -20 0 -146 39 -193 60 -11 5 -47 18 -80 30 -56 20 -205 87
-250 113 -11 6 -49 26 -84 45 -35 18 -96 54 -135 79 -39 26 -83 54 -98 63 -35
20 -70 46 -125 92 -24 21 -48 38 -52 38 -4 0 -22 13 -38 29 -17 15 -35 30 -41
32 -20 7 -321 311 -386 389 -79 96 -222 288 -238 320 -7 14 -21 38 -33 55 -36
54 -110 191 -177 328 -4 9 -12 25 -17 35 -5 9 -17 35 -26 57 -9 22 -20 48 -25
57 -6 10 -10 22 -10 28 0 5 -11 34 -25 64 -14 30 -25 64 -25 75 0 11 -5 23
-10 26 -5 3 -10 17 -10 31 0 13 -4 24 -10 24 -5 0 -10 13 -10 28 0 15 -4 32
-9 38 -9 9 -27 79 -37 139 -3 17 -9 39 -14 50 -5 11 -16 61 -24 110 -9 50 -21
113 -26 140 -20 102 -40 344 -43 505 -2 144 13 409 24 416 5 3 9 33 9 66 0 34
4 75 10 92 5 17 17 76 26 131 9 55 20 109 24 120 5 11 11 31 14 45 16 77 29
126 37 135 5 5 9 21 9 36 0 15 5 31 10 34 5 3 10 17 10 30 0 13 4 27 10 30 6
3 10 14 10 23 0 9 7 30 15 46 8 15 15 37 15 47 0 10 5 21 10 24 5 3 10 15 10
26 0 10 5 19 10 19 6 0 10 5 10 11 0 25 175 382 196 400 8 6 14 15 14 20 0 17
123 200 213 316 18 22 52 67 76 98 52 69 334 351 405 406 28 22 88 68 134 102
46 34 78 63 72 65 -6 2 -60 -28 -121 -67 -60 -39 -113 -71 -117 -71 -4 0 -18
-10 -32 -23 -14 -13 -59 -48 -100 -78 -232 -173 -486 -417 -645 -624 -16 -21
-42 -53 -57 -71 -16 -17 -28 -35 -28 -38 0 -4 -13 -21 -30 -39 -16 -18 -30
-38 -30 -45 0 -7 -7 -15 -15 -18 -8 -4 -15 -11 -15 -16 0 -6 -16 -33 -35 -59
-19 -27 -35 -52 -35 -55 0 -3 -19 -36 -43 -72 -24 -37 -50 -80 -59 -97 -8 -16
-32 -61 -52 -100 -20 -38 -36 -73 -36 -78 0 -12 -26 -37 -40 -37 -11 0 -163
36 -835 195 -489 116 -451 109 -485 95 -48 -20 -64 -74 -115 -380 -25 -157
-79 -487 -120 -735 -98 -593 -93 -548 -63 -578 19 -19 62 -33 203 -66 99 -24
263 -63 365 -87 102 -24 304 -72 450 -107 l265 -62 7 -50 c4 -28 10 -77 13
-110 15 -153 37 -322 46 -337 5 -10 9 -36 9 -57 0 -22 4 -42 9 -45 5 -3 11
-23 14 -43 3 -21 11 -68 18 -105 7 -37 11 -69 8 -72 -2 -2 -238 -121 -524
-264 -286 -143 -527 -268 -536 -278 -9 -11 -20 -35 -23 -54 -4 -19 -9 -47 -12
-61 -4 -17 2 -42 16 -70 17 -33 544 -961 695 -1224 36 -63 55 -75 121 -78 59
-2 62 -1 588 261 l528 262 34 -30 c19 -16 60 -55 92 -87 126 -124 398 -353
421 -353 5 0 12 -4 16 -9 8 -14 -364 -1122 -386 -1146 -43 -48 -26 -108 38
-133 66 -26 1519 -502 1531 -502 8 0 27 8 43 17 22 13 29 25 29 48 0 25 340
1058 352 1070 3 3 65 -2 138 -11 105 -12 197 -14 415 -10 154 3 304 7 334 8
l53 3 3 -35 c3 -52 336 -1057 357 -1080 28 -30 64 -35 96 -14 15 10 41 19 57
21 17 1 203 66 415 143 212 78 396 146 410 150 14 4 142 51 285 104 233 87
264 101 303 138 33 34 42 49 42 77 0 40 -325 1038 -346 1062 -8 8 -14 21 -14
27 0 6 60 56 133 111 72 55 146 112 162 127 17 14 52 45 79 68 132 112 395
396 494 535 9 13 31 42 47 65 17 22 44 62 60 88 17 27 33 48 38 48 4 0 7 5 7
11 0 6 10 25 23 42 12 18 27 41 33 52 36 68 68 122 80 136 8 8 14 21 14 27 0
6 9 27 19 45 45 80 91 179 91 195 0 6 5 12 10 12 6 0 10 9 10 19 0 11 5 23 10
26 5 3 10 14 10 23 0 9 11 39 25 66 14 27 25 57 25 66 0 9 4 20 8 26 4 5 16
36 26 69 10 33 22 68 27 77 5 10 9 27 9 37 0 11 4 22 9 25 5 4 12 29 16 56 4
27 11 52 16 56 5 3 9 20 9 39 0 19 4 36 9 39 5 3 12 24 15 46 3 22 9 57 12 78
3 21 14 48 24 61 17 24 18 24 28 4 6 -11 18 -62 26 -114 12 -72 13 -103 4
-134 -6 -22 -14 -139 -18 -260 -4 -121 -14 -267 -23 -325 -16 -98 -22 -128
-46 -212 -5 -18 -13 -44 -17 -58 -5 -17 9 -5 40 35 62 79 156 219 156 234 0 6
3 11 8 11 7 0 32 48 32 63 0 5 7 25 16 45 46 106 84 218 84 250 0 12 5 24 10
27 6 3 10 15 10 26 0 10 4 27 9 37 8 16 23 77 51 212 7 30 16 71 21 90 21 87
39 311 49 612 5 180 10 337 10 348 0 11 5 20 11 20 14 0 38 -30 39 -48 0 -25
116 -160 127 -149 6 7 -21 87 -29 87 -5 0 -8 11 -8 24 0 14 -4 27 -9 31 -6 3
-13 26 -17 50 -3 25 -10 48 -15 51 -5 3 -9 18 -9 34 0 16 -4 32 -10 35 -5 3
-10 19 -10 34 0 15 -4 31 -8 36 -10 12 -28 107 -43 225 -12 94 -24 174 -32
205 -3 11 -13 58 -22 105 -9 47 -21 93 -26 102 -5 10 -9 28 -9 41 0 13 -4 27
-8 32 -4 6 -16 35 -26 65 -21 65 -31 90 -76 193 -23 52 -98 179 -110 187 -5 3
-10 14 -12 25 -4 26 25 31 68 10 20 -9 39 -13 42 -9 4 3 1 9 -5 11 -7 3 -13
13 -13 23 0 10 -4 22 -10 25 -5 3 -10 18 -10 32 0 27 -42 163 -60 195 -6 10
-10 26 -10 37 0 11 -6 32 -14 48 -8 15 -20 42 -26 58 -7 17 -17 39 -23 50 -6
11 -24 47 -42 80 -17 33 -43 79 -58 102 -15 24 -27 46 -27 51 0 4 -10 22 -22
39 -13 17 -30 41 -38 53 -100 146 -258 309 -398 410 -45 33 -87 60 -92 60 -6
0 -10 4 -10 9 0 5 -8 11 -17 15 -10 3 -25 10 -33 15 -8 5 -40 21 -70 36 -82
39 -135 69 -138 78 -2 4 -8 7 -13 7 -15 0 -78 44 -84 58 -5 13 10 35 30 43 9
3 188 113 263 161 15 10 34 21 42 25 8 4 24 15 34 25 11 10 25 18 32 18 7 0
16 5 20 11 5 8 -6 10 -37 5 -24 -3 -78 -10 -119 -15 -41 -5 -111 -14 -154 -20
-44 -6 -82 -8 -85 -5 -3 3 -5 73 -5 157 0 135 4 167 32 287 18 74 41 153 51
175 30 64 93 137 155 179 56 39 57 40 184 47 150 8 257 30 329 66 86 43 211
150 272 233 69 92 99 160 117 260 17 94 18 371 2 442 -6 29 -11 57 -10 61 4
16 -66 152 -108 207 -91 123 -242 257 -375 334 -141 81 -344 143 -482 148 -86
2 -137 27 -164 78 -10 19 -27 46 -36 60 -180 250 -375 429 -644 591 -144 87
-355 125 -592 107z m-117 -3588 c164 -12 271 -24 455 -52 77 -12 147 -21 155
-20 8 1 51 4 95 7 44 3 89 6 100 7 11 1 49 0 85 -1 l65 -2 -35 -16 c-19 -9
-51 -24 -71 -34 -20 -11 -45 -19 -55 -20 -21 -1 12 -12 91 -29 28 -6 58 -15
67 -20 10 -6 29 -10 42 -10 14 0 28 -4 31 -10 3 -5 14 -10 25 -10 17 0 180
-62 210 -81 8 -5 42 -22 75 -38 33 -17 74 -39 90 -50 17 -12 38 -21 48 -21 9
0 17 -4 17 -10 0 -5 7 -10 15 -10 59 0 329 -208 421 -323 23 -29 51 -61 63
-71 11 -11 21 -23 21 -28 0 -5 11 -21 25 -36 14 -15 25 -32 25 -38 0 -6 9 -19
20 -29 11 -10 20 -23 20 -29 0 -6 16 -35 35 -63 19 -29 35 -55 35 -58 0 -3 11
-23 25 -45 14 -22 25 -45 25 -51 0 -17 -81 -4 -130 21 -21 11 -48 20 -59 20
-11 0 -22 4 -25 9 -3 5 -22 12 -42 16 -20 3 -44 10 -53 15 -46 23 -126 50
-148 50 -7 0 73 -86 178 -191 172 -172 279 -302 279 -338 0 -6 3 -11 8 -11 4
0 13 -15 21 -32 7 -18 23 -55 36 -83 30 -68 46 -115 52 -148 3 -15 9 -30 14
-33 5 -3 9 -18 9 -34 0 -16 5 -32 10 -35 6 -3 10 -19 10 -35 0 -16 4 -31 9
-34 5 -3 12 -37 16 -76 4 -39 11 -73 16 -76 5 -3 9 -25 9 -50 0 -25 6 -55 14
-67 9 -14 17 -75 22 -177 9 -167 7 -845 -3 -947 l-5 -63 -33 54 c-18 30 -54
82 -79 115 -26 34 -54 82 -63 109 -9 26 -19 51 -23 55 -4 4 -10 -49 -14 -118
-4 -77 -13 -141 -22 -165 -9 -22 -14 -52 -11 -67 3 -14 -4 -62 -14 -107 -21
-88 -100 -322 -123 -364 -8 -15 -22 -45 -32 -67 -37 -90 -75 -171 -112 -242
-64 -122 -85 -159 -106 -188 -12 -16 -25 -37 -28 -45 -3 -8 -31 -48 -62 -88
-31 -40 -56 -76 -56 -80 0 -18 -524 -534 -576 -567 -30 -19 -57 -35 -59 -35
-3 0 -30 -16 -60 -37 -31 -20 -58 -33 -62 -30 -7 7 13 39 52 82 63 70 144 186
193 275 66 121 142 282 142 301 0 8 4 19 8 24 5 6 15 30 22 55 8 25 16 50 20
55 3 6 14 46 24 90 10 44 22 89 26 100 13 32 20 79 37 255 13 140 13 207 4
445 -6 154 -16 284 -21 289 -6 6 -10 21 -10 35 0 13 -4 38 -10 55 -5 17 -14
59 -21 93 -13 69 -21 72 -39 15 -18 -57 -87 -204 -123 -264 -30 -50 -86 -130
-145 -210 -64 -87 -210 -243 -219 -234 -4 4 1 44 10 89 24 117 23 296 -4 417
-12 52 -24 120 -28 150 -6 43 -9 49 -13 30 -13 -48 -20 -86 -28 -145 -25 -182
-43 -275 -61 -307 -5 -10 -9 -27 -9 -37 0 -11 -4 -23 -10 -26 -5 -3 -10 -13
-10 -21 0 -8 -22 -61 -50 -118 -27 -57 -50 -108 -50 -114 0 -6 -3 -12 -7 -14
-5 -1 -18 -23 -31 -47 -31 -61 -56 -105 -62 -111 -8 -8 -28 -42 -47 -80 -10
-19 -23 -42 -30 -50 -6 -8 -42 -60 -79 -115 -37 -55 -70 -102 -73 -105 -4 -3
-36 -39 -71 -80 -67 -76 -145 -153 -185 -180 -12 -8 -43 -33 -69 -54 -56 -46
-79 -39 -48 15 10 19 27 57 37 84 10 28 22 54 27 60 4 5 8 17 8 27 0 10 4 26
9 36 5 9 17 53 26 97 10 44 21 88 26 97 5 10 9 30 9 46 0 15 4 32 8 37 12 14
38 142 51 251 9 72 8 111 -3 185 -16 103 -24 131 -36 124 -4 -2 -10 -18 -13
-35 -4 -17 -20 -58 -35 -93 -16 -34 -37 -82 -47 -107 -9 -25 -22 -56 -28 -70
-14 -35 -23 -59 -37 -100 -7 -19 -20 -51 -28 -70 -8 -19 -18 -44 -22 -55 -76
-188 -174 -285 -370 -369 -56 -24 -120 -35 -192 -36 -61 0 -68 2 -68 20 0 11
6 20 14 20 8 0 41 29 74 65 61 66 118 169 142 255 7 25 16 54 20 65 5 11 11
36 14 55 3 19 10 64 16 100 7 39 10 207 8 425 -2 276 0 369 10 397 25 72 10
77 -40 13 -25 -33 -55 -71 -66 -83 -12 -13 -22 -27 -24 -30 -2 -4 -24 -26 -50
-49 -58 -52 -88 -57 -88 -14 0 17 5 33 10 36 6 3 10 17 10 29 0 25 30 107 61
168 5 10 9 26 9 36 0 10 5 23 11 29 18 18 -3 618 -22 637 -5 6 -9 19 -9 30 -1
34 -37 134 -83 226 -44 90 -49 98 -84 136 -43 47 -24 61 48 38 45 -15 172 -76
284 -137 51 -28 140 -110 176 -161 31 -45 42 -65 70 -131 4 -11 13 -47 19 -79
17 -101 23 -90 40 66 13 118 3 202 -31 249 -22 31 -17 39 25 39 43 0 146 -23
146 -32 0 -4 6 -8 13 -8 29 0 267 -210 267 -236 0 -6 7 -17 15 -24 14 -11 51
-83 81 -155 6 -15 9 -8 11 30 2 28 8 59 13 70 31 70 30 415 -1 415 -5 0 -9 8
-9 18 0 11 -7 33 -16 51 -9 17 -13 38 -10 46 4 12 9 12 34 -1 80 -39 184 -56
352 -57 109 -1 175 3 193 11 28 12 29 32 1 32 -20 0 -133 54 -162 77 -87 70
-113 94 -155 145 -26 31 -47 61 -47 66 0 6 -6 17 -12 24 -7 7 -26 38 -42 68
-39 75 -96 141 -143 165 -21 11 -40 23 -44 27 -3 4 -39 16 -80 26 -95 24 -97
34 -27 144 77 122 76 119 98 166 28 58 45 50 44 -21 -1 -50 0 -54 16 -45 10 6
30 36 46 67 16 31 32 58 35 61 7 6 27 103 33 157 9 89 75 162 146 163 15 0 31
5 37 11 6 6 91 13 212 16 186 6 219 11 190 29 -6 3 -131 10 -277 15 -147 4
-319 15 -382 24 -63 8 -164 22 -225 30 -60 8 -137 22 -170 31 -65 18 -120 11
-218 -27 -59 -23 -80 -24 -169 -2 -88 21 -151 10 -274 -49 -79 -38 -93 -42
-188 -46 -111 -5 -135 2 -188 52 -127 120 -127 255 -2 356 31 25 70 57 88 71
53 45 160 110 189 116 15 3 27 9 27 14 0 5 9 9 19 9 11 0 23 5 26 10 3 6 18
10 33 10 15 0 34 5 42 10 10 7 -21 10 -97 10 -117 0 -137 8 -80 34 71 31 179
49 377 61 273 16 284 16 440 5z m-1324 -557 c-19 -144 -20 -135 16 -188 18
-27 67 -75 108 -107 41 -31 77 -64 80 -72 8 -24 116 -96 145 -96 14 0 44 9 66
20 48 25 156 60 185 60 28 0 39 -15 53 -74 21 -84 115 -195 191 -225 138 -53
293 -30 428 63 63 44 74 73 81 209 6 118 12 136 49 137 16 0 64 -48 79 -80 38
-82 34 -213 -9 -308 -21 -43 -119 -142 -143 -142 -7 0 -18 -7 -25 -15 -18 -22
-124 -52 -210 -59 -140 -11 -414 23 -515 65 -11 4 -36 11 -55 15 -31 6 -33 5
-21 -10 7 -9 17 -16 22 -16 5 0 34 -12 66 -27 55 -25 165 -67 208 -79 11 -3
27 -8 35 -12 8 -3 68 -13 134 -23 129 -18 131 -20 187 -107 26 -41 14 -63 -24
-43 -43 23 -550 0 -625 -29 -51 -19 -117 -6 -217 43 -106 52 -150 67 -193 67
-17 0 -34 5 -37 10 -3 6 -19 10 -34 10 -15 0 -43 8 -62 17 -48 24 -201 25
-248 0 -19 -9 -40 -17 -48 -17 -7 0 -13 -3 -13 -8 0 -11 -75 -32 -116 -32 -29
0 -49 11 -102 55 -73 60 -110 69 -169 40 -25 -13 -93 -77 -93 -88 0 -3 -9 -26
-21 -52 -32 -72 -42 -46 -40 111 1 201 39 326 138 454 64 83 136 132 288 194
22 10 48 21 57 26 10 6 27 10 37 10 11 0 23 5 26 10 3 6 16 10 29 10 12 0 26
3 30 7 3 4 36 16 72 27 66 21 68 23 106 100 6 10 16 42 24 70 24 83 48 125 73
126 10 0 12 -11 7 -47z m1316 -313 c18 -37 24 -145 9 -154 -4 -3 -11 -19 -14
-35 -8 -39 -113 -127 -164 -138 -21 -4 -75 -8 -119 -8 -69 1 -90 5 -137 28
-30 16 -66 40 -80 55 -32 34 -67 97 -67 120 0 10 -5 23 -10 28 -14 14 -2 44
16 37 7 -3 27 -27 44 -55 48 -78 106 -128 149 -128 11 0 23 -4 26 -10 8 -13
79 -13 103 -1 9 5 33 16 53 25 19 8 44 25 54 36 l20 22 -38 -7 c-71 -14 -106
30 -91 112 7 39 49 83 79 83 22 0 57 -32 68 -62 8 -22 21 -23 36 -4 9 10 9 20
0 39 -28 63 33 79 63 17z"/>
<path d="M5844 7280 c-50 -20 -40 -51 26 -79 50 -22 176 -53 220 -55 46 -2 26
26 -45 64 -38 20 -88 46 -110 58 -43 24 -58 26 -91 12z"/>
<path d="M5400 10940 c-8 -5 -46 -23 -85 -39 -38 -16 -90 -41 -115 -56 -70
-40 -73 -42 -110 -58 -96 -43 -164 -73 -255 -114 -198 -87 -344 -235 -416
-420 -18 -48 -22 -79 -23 -183 -1 -113 2 -132 26 -197 15 -40 37 -91 48 -112
29 -58 109 -150 171 -198 83 -64 291 -167 419 -209 178 -57 262 -101 415 -220
153 -117 221 -208 236 -311 5 -36 12 -69 15 -74 13 -21 33 -5 60 49 l29 57 4
275 c3 307 -1 345 -55 456 -39 80 -140 186 -210 222 -58 29 -67 19 -55 -59 15
-88 16 -85 -29 -103 -51 -20 -131 -10 -304 41 -178 51 -319 130 -394 221 -56
67 -62 82 -69 170 -5 66 -2 90 16 145 13 37 27 69 32 73 5 3 20 22 33 42 46
71 140 164 290 285 153 124 161 130 251 191 63 42 125 102 125 121 0 17 -28
19 -50 5z"/>
</g>
</svg>
